<svg width="19" height="19" viewBox="0 0 19 19" fill="none" xmlns="http://www.w3.org/2000/svg">
  <g clip-path="url(#clip0_3_158)">
    <path d="M2.375 3.95833V15.0417C2.375 15.9125 3.07958 16.625 3.95833 16.625H15.0417C15.9125 16.625 16.625 15.9125 16.625 15.0417V3.95833C16.625 3.0875 15.9125 2.375 15.0417 2.375H3.95833C3.07958 2.375 2.375 3.0875 2.375 3.95833ZM11.875 7.125C11.875 8.43917 10.8142 9.5 9.5 9.5C8.18583 9.5 7.125 8.43917 7.125 7.125C7.125 5.81083 8.18583 4.75 9.5 4.75C10.8142 4.75 11.875 5.81083 11.875 7.125ZM4.75 13.4583C4.75 11.875 7.91667 11.0042 9.5 11.0042C11.0833 11.0042 14.25 11.875 14.25 13.4583V14.25H4.75V13.4583Z" fill="black"/>
  </g>
  <defs>
    <clipPath id="clip0_3_158">
      <rect width="19" height="19" fill="white"/>
    </clipPath>
  </defs>
</svg>
