<svg width="22" height="22" viewBox="0 0 22 22" fill="none" xmlns="http://www.w3.org/2000/svg">
<path d="M10.9893 1C9.31345 1.00171 7.66485 1.42348 6.19429 2.2267C4.72372 3.02991 3.47816 4.18894 2.57157 5.59772C1.29645 7.59663 0.771933 9.98282 1.09128 12.3319C1.41063 14.681 2.55315 16.8407 4.31565 18.4271C6.07815 20.0134 8.34639 20.9234 10.717 20.9954C13.0876 21.0673 15.4069 20.2965 17.2624 18.8199C18.8773 17.5206 20.0494 15.7526 20.617 13.7596C21.1847 11.7666 21.1199 9.64665 20.4318 7.69191C19.7437 5.73718 18.4661 4.04389 16.7749 2.84537C15.0837 1.64686 13.0623 1.00212 10.9893 1ZM12.9934 3.2638C14.3782 3.6221 15.6418 4.3442 16.6532 5.3552C17.6646 6.36621 18.387 7.6293 18.7455 9.01345C17.07 9.06062 15.4345 9.53657 13.9955 10.3957C13.273 9.5764 12.4669 8.83447 11.5905 8.18206C12.4735 6.69052 12.9567 4.99654 12.9934 3.2638ZM10.9893 3.00336C10.9859 4.4408 10.591 5.8502 9.84687 7.08021C9.69647 7.00007 9.55625 6.90992 9.40593 6.83981C8.11556 6.15925 6.73583 5.66357 5.3073 5.36733C6.05191 4.61859 6.93719 4.02431 7.91228 3.61862C8.88737 3.21294 9.93307 3.00385 10.9893 3.00336ZM3.97451 7.17036C5.54623 7.38861 7.06841 7.87659 8.47394 8.61278L8.60422 8.69291C7.86458 9.43157 6.98639 10.0171 6.01998 10.4158C5.05356 10.8146 4.01792 11.0188 2.97241 11.0168C2.97798 9.6709 3.32261 8.34805 3.97451 7.17036ZM8.98502 18.7698C7.60028 18.4116 6.33666 17.6895 5.32523 16.6785C4.31379 15.6674 3.59139 14.4043 3.23295 13.0201C4.57141 12.9905 5.89001 12.6903 7.10933 12.1376C8.32866 11.5851 9.42344 10.7916 10.3278 9.80482C11.0523 10.3401 11.7234 10.9439 12.3321 11.6078C11.3173 12.5122 10.4972 13.6136 9.92182 14.8448C9.34641 16.0761 9.0277 17.4116 8.98502 18.7698ZM10.9893 19.0303C10.9913 17.9298 11.2203 16.8416 11.6616 15.8334C12.103 14.8252 12.7474 13.9187 13.5546 13.1704C13.6147 13.2506 13.6749 13.3206 13.725 13.4008C14.5648 14.6862 15.1876 16.1007 15.5688 17.5879C14.2276 18.5291 12.628 19.033 10.9893 19.0303ZM17.2123 16.0252C16.7771 14.7 16.1707 13.4372 15.4085 12.2689L15.198 12.0185C16.3632 11.3706 17.6727 11.0261 19.006 11.0168C18.9961 12.8417 18.3633 14.6086 17.2123 16.0252Z" fill="#09C61C"/>
</svg>
