<svg width="22" height="22" viewBox="0 0 22 22" fill="none" xmlns="http://www.w3.org/2000/svg">
<path d="M14.8183 7.4C16.9272 9.38823 16.9272 12.6117 14.8183 14.5999M7.18161 14.5999C5.07279 12.6117 5.07279 9.38814 7.18161 7.39996M4.63604 16.9999C1.12132 13.6862 1.12132 8.31369 4.63604 5M17.364 5.00004C20.8787 8.31373 20.8787 13.6862 17.364 17M12.8 11C12.8 11.9372 11.9942 12.6971 11 12.6971C10.0058 12.6971 9.20001 11.9372 9.20001 11C9.20001 10.0627 10.0058 9.30293 11 9.30293C11.9942 9.30293 12.8 10.0627 12.8 11Z" stroke="#09C61C" stroke-width="2" stroke-linecap="round" stroke-linejoin="round"/>
</svg>
