<svg width="22" height="22" viewBox="0 0 22 22" fill="none" xmlns="http://www.w3.org/2000/svg">
<path d="M11 15.1724C12.4664 15.1724 13.6552 13.9836 13.6552 12.5172C13.6552 11.0508 12.4664 9.86206 11 9.86206C9.53361 9.86206 8.34485 11.0508 8.34485 12.5172C8.34485 13.9836 9.53361 15.1724 11 15.1724Z" fill="#09C61C"/>
<path d="M18.9655 6.06895H16.478C16.3187 6.06899 16.1634 6.01889 16.0342 5.92576C15.905 5.83262 15.8084 5.70118 15.758 5.55006L15.5183 4.83013C15.4175 4.52802 15.2242 4.2653 14.9658 4.07917C14.7074 3.89305 14.3969 3.79296 14.0785 3.79309H7.92073C7.60229 3.79317 7.29195 3.89345 7.03367 4.0797C6.77539 4.26596 6.58225 4.52876 6.48163 4.83088L6.2419 5.55006C6.19157 5.70118 6.09494 5.83262 5.96573 5.92576C5.83651 6.01889 5.68125 6.06899 5.52197 6.06895H3.03445C2.63206 6.06895 2.24614 6.22881 1.9616 6.51334C1.67706 6.79788 1.51721 7.1838 1.51721 7.58619V16.6896C1.51721 17.092 1.67706 17.478 1.9616 17.7625C2.24614 18.047 2.63206 18.2069 3.03445 18.2069H18.9655C19.3679 18.2069 19.7538 18.047 20.0383 17.7625C20.3229 17.478 20.4827 17.092 20.4827 16.6896V7.58619C20.4827 7.1838 20.3229 6.79788 20.0383 6.51334C19.7538 6.22881 19.3679 6.06895 18.9655 6.06895ZM11 16.6896C8.69983 16.6896 6.82756 14.8174 6.82756 12.5172C6.82756 10.2171 8.69983 8.34482 11 8.34482C13.3001 8.34482 15.1724 10.2171 15.1724 12.5172C15.1724 14.8174 13.3001 16.6896 11 16.6896ZM15.5517 9.10344C15.3505 9.10344 15.1575 9.02351 15.0153 8.88124C14.873 8.73897 14.7931 8.54601 14.7931 8.34482C14.7931 8.14362 14.873 7.95066 15.0153 7.80839C15.1575 7.66612 15.3505 7.58619 15.5517 7.58619C15.7529 7.58619 15.9459 7.66612 16.0881 7.80839C16.2304 7.95066 16.3103 8.14362 16.3103 8.34482C16.3103 8.54601 16.2304 8.73897 16.0881 8.88124C15.9459 9.02351 15.7529 9.10344 15.5517 9.10344Z" fill="#09C61C"/>
<path d="M4.17243 5.31038H2.65519C2.55459 5.31038 2.45811 5.27042 2.38698 5.19928C2.31584 5.12815 2.27588 5.03167 2.27588 4.93107C2.27588 4.83047 2.31584 4.73399 2.38698 4.66286C2.45811 4.59172 2.55459 4.55176 2.65519 4.55176H4.17243C4.27303 4.55176 4.36951 4.59172 4.44064 4.66286C4.51178 4.73399 4.55174 4.83047 4.55174 4.93107C4.55174 5.03167 4.51178 5.12815 4.44064 5.19928C4.36951 5.27042 4.27303 5.31038 4.17243 5.31038Z" fill="#09C61C"/>
</svg>
