<svg xmlns="http://www.w3.org/2000/svg" width="40" height="49" viewBox="0 0 40 49" fill="none">
<path d="M19.6505 48.0273C18.3664 48.0273 17.3253 46.9859 17.3253 45.7012V27.9323H21.9758V45.7012C21.9756 46.9858 20.9347 48.0273 19.6505 48.0273Z" fill="#2B7B57"/>
<path d="M37.6155 8.01131C35.5016 5.8966 33.2951 6.49516 32.4577 6.84562C32.8083 6.00814 33.4033 3.79761 31.2894 1.6829C29.1394 -0.467832 25.6764 -0.787416 22.8062 2.08384C21.6448 3.24563 20.8707 4.46209 20.3737 6.18656C19.2439 10.1063 18.9747 20.3334 18.9747 20.3334C18.9747 20.3334 29.1689 20.0746 33.1182 18.9355C34.842 18.4383 36.0564 17.6624 37.2179 16.5006C40.088 13.6294 39.7655 10.162 37.6155 8.01131Z" fill="#49B86E"/>
<path d="M1.68541 31.3037C3.79936 33.4184 6.00577 32.8198 6.84323 32.4693C6.49262 33.3068 5.89761 35.5174 8.01156 37.6321C10.1615 39.7828 13.6245 40.1024 16.4948 37.2311C17.6561 36.0693 18.4302 34.8529 18.9272 33.1284C20.057 29.2087 20.3262 18.9816 20.3262 18.9816C20.3262 18.9816 10.132 19.2404 6.18274 20.3795C4.45888 20.8767 3.24453 21.6526 2.08301 22.8144C-0.787078 25.6856 -0.46455 29.1529 1.68541 31.3037Z" fill="#49B86E"/>
<path d="M31.2924 37.629C33.4064 35.5143 32.808 33.3071 32.4577 32.4693C33.2949 32.8201 35.5046 33.4153 37.6186 31.3006C39.7685 29.1499 40.088 25.6856 37.2178 22.8144C36.0564 21.6526 34.8404 20.8782 33.1165 20.381C29.1982 19.2508 18.9747 18.9816 18.9747 18.9816C18.9747 18.9816 19.2334 29.1793 20.3722 33.1301C20.8692 34.8545 21.6448 36.0693 22.8062 37.2313C25.6764 40.1024 29.1425 39.7797 31.2924 37.629Z" fill="#49B86E"/>
<path d="M8.00845 1.68638C5.89449 3.80109 6.49298 6.00828 6.84317 6.84604C6.00599 6.4953 3.79625 5.90008 1.6823 8.01479C-0.467665 10.1655 -0.787135 13.6298 2.08309 16.501C3.24447 17.6628 4.46049 18.4372 6.18435 18.9343C10.1027 20.0646 20.3261 20.3338 20.3261 20.3338C20.3261 20.3338 20.0674 10.136 18.9287 6.18532C18.4317 4.46084 17.6561 3.24606 16.4947 2.08412C13.6245 -0.786994 10.1584 -0.46435 8.00845 1.68638Z" fill="#49B86E"/>
</svg>