<svg width="22" height="22" viewBox="0 0 22 22" fill="none" xmlns="http://www.w3.org/2000/svg">
<path fill-rule="evenodd" clip-rule="evenodd" d="M5.16901 12H3V10H5.16901L6.16901 11L5.16901 12ZM7.588 9.58108L7.58299 9.58592L5.99699 8H2.99699H1V14H2.99699H5.99699L9.00301 10.9951L7.588 9.58108ZM19 12H16.831L15.831 11L16.831 10H19V12ZM19.003 8H16.003L12.997 11.0049L14.412 12.4189L14.417 12.4141L16.003 14H19.003H21V8H19.003ZM12 16.834V19H10V16.834L11 15.834L12 16.834ZM9.583 14.4141L9.587 14.4189L8 16.0049V19.0049V21H14V19.0049V16.0049L10.996 13L9.583 14.4141ZM10 5.17188V3H12V5.17188L11 6.17188L10 5.17188ZM12.422 7.59082L12.416 7.58594L14 6V3V1H8V3V6L11.006 9.00488L12.422 7.59082Z" fill="#09C61C"/>
</svg>
