<svg width="22" height="22" viewBox="0 0 22 22" fill="none" xmlns="http://www.w3.org/2000/svg">
<path d="M20 10H18.93C18.7068 8.23997 17.9049 6.60407 16.6504 5.34958C15.3959 4.09509 13.76 3.29319 12 3.07V2C12 1.73478 11.8947 1.48043 11.7071 1.29289C11.5196 1.10536 11.2653 1 11 1C10.7347 1 10.4804 1.10536 10.2929 1.29289C10.1053 1.48043 10 1.73478 10 2V3.07C8.23997 3.29319 6.60407 4.09509 5.34958 5.34958C4.09509 6.60407 3.29319 8.23997 3.07 10H2C1.73478 10 1.48043 10.1053 1.29289 10.2929C1.10536 10.4804 1 10.7347 1 11C1 11.2653 1.10536 11.5196 1.29289 11.7071C1.48043 11.8947 1.73478 12 2 12H3.07C3.29319 13.76 4.09509 15.3959 5.34958 16.6504C6.60407 17.9049 8.23997 18.7068 10 18.93V20C10 20.2652 10.1053 20.5196 10.2929 20.7071C10.4804 20.8947 10.7347 21 11 21C11.2653 21 11.5196 20.8947 11.7071 20.7071C11.8947 20.5196 12 20.2652 12 20V18.93C13.76 18.7068 15.3959 17.9049 16.6504 16.6504C17.9049 15.3959 18.7068 13.76 18.93 12H20C20.2652 12 20.5196 11.8947 20.7071 11.7071C20.8947 11.5196 21 11.2653 21 11C21 10.7347 20.8947 10.4804 20.7071 10.2929C20.5196 10.1053 20.2652 10 20 10ZM16 12H16.91C16.7016 13.2264 16.1171 14.3577 15.2374 15.2374C14.3577 16.1171 13.2264 16.7016 12 16.91V16C12 15.7347 11.8947 15.4804 11.7071 15.2929C11.5196 15.1053 11.2653 15 11 15C10.7347 15 10.4804 15.1053 10.2929 15.2929C10.1053 15.4804 10 15.7347 10 16V16.91C8.77356 16.7016 7.64222 16.1171 6.76256 15.2374C5.8829 14.3577 5.29842 13.2264 5.09 12H6C6.26522 12 6.51957 11.8947 6.70711 11.7071C6.89464 11.5196 7 11.2653 7 11C7 10.7347 6.89464 10.4804 6.70711 10.2929C6.51957 10.1053 6.26522 10 6 10H5.09C5.29842 8.77356 5.8829 7.64222 6.76256 6.76256C7.64222 5.8829 8.77356 5.29842 10 5.09V6C10 6.26522 10.1053 6.51957 10.2929 6.70711C10.4804 6.89464 10.7347 7 11 7C11.2653 7 11.5196 6.89464 11.7071 6.70711C11.8947 6.51957 12 6.26522 12 6V5.09C13.2264 5.29842 14.3577 5.8829 15.2374 6.76256C16.1171 7.64222 16.7016 8.77356 16.91 10H16C15.7347 10 15.4804 10.1053 15.2929 10.2929C15.1053 10.4804 15 10.7347 15 11C15 11.2653 15.1053 11.5196 15.2929 11.7071C15.4804 11.8947 15.7347 12 16 12ZM11 10C10.8022 10 10.6089 10.0587 10.4444 10.1685C10.28 10.2784 10.1518 10.4346 10.0761 10.6173C10.0004 10.8001 9.98067 11.0011 10.0192 11.1951C10.0578 11.3891 10.153 11.5673 10.2929 11.7071C10.4327 11.847 10.6109 11.9422 10.8049 11.9808C10.9989 12.0193 11.1999 11.9996 11.3827 11.9239C11.5654 11.8482 11.7216 11.72 11.8315 11.5556C11.9413 11.3911 12 11.1978 12 11C12 10.7347 11.8947 10.4804 11.7071 10.2929C11.5196 10.1053 11.2653 10 11 10Z" fill="#09C61C"/>
</svg>
