<svg width="35" height="30" viewBox="0 0 35 30" fill="none" xmlns="http://www.w3.org/2000/svg">
  <path d="M26.4204 0L31.4025 8.80906H21.4383L26.4204 0Z" fill="#0A8B17"/>
  <path d="M26.4205 2.39697L32.4406 12.824H20.4005L26.4205 2.39697Z" fill="#0A8B17"/>
  <path d="M26.4205 5.51312L33.0633 17.0188H19.7776L26.4205 5.51312Z" fill="#0A8B17"/>
  <rect x="25.7013" y="16.2998" width="1.43821" height="3.11613" fill="#0A8B17"/>
  <path d="M7.67045 0L12.6526 8.80906H2.68834L7.67045 0Z" fill="#0A8B17"/>
  <path d="M7.67054 2.39697L13.6906 12.824H1.65048L7.67054 2.39697Z" fill="#0A8B17"/>
  <path d="M7.67047 5.51312L14.3133 17.0188H1.02765L7.67047 5.51312Z" fill="#0A8B17"/>
  <rect x="6.95135" y="16.2998" width="1.43821" height="3.11613" fill="#0A8B17"/>
  <path d="M17.0455 0.340881L24.1312 12.8693H9.95987L17.0455 0.340881Z" fill="#09C61C"/>
  <path d="M17.0454 3.75L25.6073 18.5796H8.48358L17.0454 3.75Z" fill="#09C61C"/>
  <path d="M17.0454 8.18176L26.493 24.5454H7.59784L17.0454 8.18176Z" fill="#09C61C"/>
  <rect x="16.0227" y="23.5228" width="2.04546" height="4.43183" fill="#09C61C"/>
</svg>
