<svg width="22" height="22" viewBox="0 0 22 22" fill="none" xmlns="http://www.w3.org/2000/svg">
<path d="M20.32 8.55L18.43 7.92L19.32 6.14C19.4102 5.95369 19.4404 5.74397 19.4063 5.53978C19.3723 5.33558 19.2758 5.14698 19.13 5L17 2.87C16.8522 2.72209 16.6618 2.62421 16.4555 2.59013C16.2493 2.55605 16.0375 2.58748 15.85 2.68001L14.07 3.57L13.44 1.68001C13.3735 1.483 13.2471 1.31163 13.0787 1.18975C12.9102 1.06787 12.7079 1.00155 12.5 1H9.5C9.29034 0.999462 9.08583 1.06482 8.91537 1.18685C8.74491 1.30887 8.61708 1.48138 8.55 1.68001L7.92 3.57L6.14 2.68001C5.95369 2.58978 5.74397 2.55961 5.53978 2.59364C5.33558 2.62767 5.14698 2.72423 5 2.87L2.87 5C2.72209 5.14777 2.62421 5.33818 2.59013 5.54446C2.55605 5.75074 2.58748 5.96251 2.68001 6.15L3.57 7.93L1.68001 8.56C1.483 8.62651 1.31163 8.75286 1.18975 8.92131C1.06787 9.08977 1.00155 9.29206 1 9.5V12.5C0.999462 12.7097 1.06482 12.9142 1.18685 13.0846C1.30887 13.2551 1.48138 13.3829 1.68001 13.45L3.57 14.08L2.68001 15.86C2.58978 16.0463 2.55961 16.2561 2.59364 16.4602C2.62767 16.6644 2.72423 16.853 2.87 17L5 19.13C5.14777 19.2779 5.33818 19.3758 5.54446 19.4099C5.75074 19.4439 5.96251 19.4125 6.15 19.32L7.93 18.43L8.56 20.32C8.62708 20.5186 8.75491 20.6911 8.92537 20.8131C9.09583 20.9352 9.30034 21.0005 9.51 21H12.51C12.7197 21.0005 12.9242 20.9352 13.0946 20.8131C13.2651 20.6911 13.3929 20.5186 13.46 20.32L14.09 18.43L15.87 19.32C16.0551 19.4079 16.2628 19.4369 16.4649 19.4029C16.667 19.3689 16.8538 19.2737 17 19.13L19.13 17C19.2779 16.8522 19.3758 16.6618 19.4099 16.4555C19.4439 16.2493 19.4125 16.0375 19.32 15.85L18.43 14.07L20.32 13.44C20.517 13.3735 20.6884 13.2471 20.8102 13.0787C20.9321 12.9102 20.9985 12.7079 21 12.5V9.5C21.0005 9.29034 20.9352 9.08583 20.8131 8.91537C20.6911 8.74491 20.5186 8.61708 20.32 8.55ZM19 11.78L17.8 12.18C17.5241 12.2695 17.2709 12.418 17.0581 12.6151C16.8452 12.8122 16.6778 13.0533 16.5675 13.3216C16.4571 13.5899 16.4064 13.879 16.419 14.1688C16.4315 14.4586 16.5069 14.7422 16.64 15L17.21 16.14L16.11 17.24L15 16.64C14.7435 16.5122 14.4626 16.4411 14.1763 16.4313C13.8899 16.4215 13.6049 16.4734 13.3403 16.5834C13.0758 16.6934 12.8379 16.8589 12.6429 17.0689C12.4479 17.2787 12.3003 17.5281 12.21 17.8L11.81 19H10.22L9.82 17.8C9.73051 17.5241 9.582 17.2709 9.38491 17.0581C9.18777 16.8452 8.94668 16.6778 8.6784 16.5675C8.41011 16.4571 8.12103 16.4064 7.8312 16.419C7.54137 16.4315 7.25777 16.5069 7 16.64L5.86 17.21L4.76 16.11L5.36 15C5.4931 14.7422 5.56852 14.4586 5.58105 14.1688C5.59357 13.879 5.5429 13.5899 5.43254 13.3216C5.32218 13.0533 5.15478 12.8122 4.94195 12.6151C4.72911 12.418 4.47595 12.2695 4.2 12.18L3 11.78V10.22L4.2 9.82C4.47595 9.73051 4.72911 9.582 4.94195 9.38491C5.15478 9.18777 5.32218 8.94668 5.43254 8.6784C5.5429 8.41011 5.59357 8.12103 5.58105 7.8312C5.56852 7.54137 5.4931 7.25777 5.36 7L4.79 5.89L5.89 4.79L7 5.36C7.25777 5.4931 7.54137 5.56852 7.8312 5.58105C8.12103 5.59357 8.41011 5.5429 8.6784 5.43254C8.94668 5.32218 9.18777 5.15478 9.38491 4.94195C9.582 4.72911 9.73051 4.47595 9.82 4.2L10.22 3H11.78L12.18 4.2C12.2695 4.47595 12.418 4.72911 12.6151 4.94195C12.8122 5.15478 13.0533 5.32218 13.3216 5.43254C13.5899 5.5429 13.879 5.59357 14.1688 5.58105C14.4586 5.56852 14.7422 5.4931 15 5.36L16.14 4.79L17.24 5.89L16.64 7C16.5122 7.25646 16.4411 7.53737 16.4313 7.82371C16.4215 8.11006 16.4734 8.39514 16.5834 8.65966C16.6934 8.92423 16.8589 9.16206 17.0689 9.35709C17.2787 9.55211 17.5281 9.69971 17.8 9.79L19 10.19V11.78ZM11 7C10.2089 7 9.43554 7.23457 8.77771 7.67411C8.11994 8.11366 7.60726 8.73834 7.30446 9.46926C7.00171 10.2002 6.92251 11.0045 7.07686 11.7803C7.2312 12.5563 7.61217 13.269 8.1716 13.8284C8.73097 14.3878 9.44371 14.7688 10.2197 14.9231C10.9955 15.0775 11.7998 14.9983 12.5307 14.6955C13.2617 14.3927 13.8863 13.8801 14.3259 13.2223C14.7654 12.5645 15 11.7911 15 11C15 9.93914 14.5786 8.92171 13.8284 8.1716C13.0783 7.42143 12.0609 7 11 7ZM11 13C10.6045 13 10.2178 12.8827 9.88886 12.6629C9.55994 12.4432 9.3036 12.1308 9.15223 11.7654C9.00086 11.3999 8.96126 10.9978 9.03846 10.6098C9.1156 10.2219 9.30606 9.86549 9.58577 9.58577C9.86549 9.30606 10.2219 9.1156 10.6098 9.03846C10.9978 8.96126 11.3999 9.00086 11.7654 9.15223C12.1308 9.3036 12.4432 9.55994 12.6629 9.88886C12.8827 10.2178 13 10.6045 13 11C13 11.5305 12.7893 12.0391 12.4142 12.4142C12.0391 12.7893 11.5305 13 11 13Z" fill="#09C61C"/>
</svg>
