<svg width="22" height="22" viewBox="0 0 22 22" fill="none" xmlns="http://www.w3.org/2000/svg">
<path d="M11 1C8.43639 1.00731 5.9735 1.99892 4.12 3.77V2C4.12 1.73478 4.01464 1.48043 3.82711 1.29289C3.63957 1.10536 3.38522 1 3.12 1C2.85479 1 2.60044 1.10536 2.41289 1.29289C2.22536 1.48043 2.12 1.73478 2.12 2V6.50001C2.12 6.76522 2.22536 7.01957 2.41289 7.20712C2.60044 7.39465 2.85479 7.50001 3.12 7.50001H7.62001C7.88522 7.50001 8.13957 7.39465 8.32712 7.20712C8.51465 7.01957 8.62001 6.76522 8.62001 6.50001C8.62001 6.23479 8.51465 5.98043 8.32712 5.7929C8.13957 5.60536 7.88522 5.5 7.62001 5.5H5.22C6.50578 4.15636 8.21951 3.30266 10.0665 3.08567C11.9136 2.86869 13.7785 3.30198 15.3407 4.31105C16.9028 5.32012 18.0647 6.84191 18.6264 8.6148C19.188 10.3877 19.1145 12.3008 18.4184 14.0254C17.7224 15.7499 16.4472 17.1781 14.8122 18.0644C13.1772 18.9505 11.2845 19.2394 9.45959 18.8814C7.63463 18.5233 5.99147 17.5405 4.8126 16.1022C3.63372 14.6638 2.99279 12.8598 3 11C3 10.7348 2.89464 10.4804 2.70711 10.2929C2.51957 10.1053 2.26522 10 2 10C1.73478 10 1.48043 10.1053 1.29289 10.2929C1.10536 10.4804 1 10.7348 1 11C1 12.9778 1.58649 14.9112 2.6853 16.5557C3.78412 18.2002 5.3459 19.4819 7.17317 20.2388C9.00043 20.9957 11.0111 21.1937 12.9509 20.8079C14.8908 20.422 16.6725 19.4696 18.0711 18.0711C19.4696 16.6725 20.422 14.8908 20.8079 12.9509C21.1937 11.0111 20.9957 9.00043 20.2388 7.17317C19.4819 5.3459 18.2002 3.78412 16.5557 2.6853C14.9112 1.58649 12.9778 1 11 1ZM11 7.00001C10.7348 7.00001 10.4804 7.10536 10.2929 7.2929C10.1053 7.48043 10 7.73479 10 8.00001V11C10 11.2653 10.1053 11.5196 10.2929 11.7071C10.4804 11.8947 10.7348 12 11 12H13C13.2653 12 13.5196 11.8947 13.7071 11.7071C13.8947 11.5196 14 11.2653 14 11C14 10.7348 13.8947 10.4804 13.7071 10.2929C13.5196 10.1053 13.2653 10 13 10H12V8.00001C12 7.73479 11.8947 7.48043 11.7071 7.2929C11.5196 7.10536 11.2653 7.00001 11 7.00001Z" fill="#09C61C"/>
</svg>
