<svg width="22" height="22" viewBox="0 0 22 22" fill="none" xmlns="http://www.w3.org/2000/svg">
<path d="M20.6625 9.24926L11.6602 1.24875C11.4777 1.08842 11.243 1 11 1C10.757 1 10.5223 1.08842 10.3398 1.24875L1.33752 9.24926C1.18452 9.38458 1.07662 9.5635 1.02834 9.76192C0.980059 9.96042 0.993707 10.1688 1.06745 10.3593C1.13999 10.5472 1.26761 10.7089 1.43359 10.8232C1.59958 10.9373 1.7962 10.9987 1.99769 10.9993H2.99795V19.9999C2.99795 20.2652 3.10333 20.5195 3.29092 20.7071C3.4785 20.8947 3.73292 21 3.9982 21H18.0018C18.2671 21 18.5215 20.8947 18.7091 20.7071C18.8967 20.5195 19.0021 20.2652 19.0021 19.9999V10.9993H20.0023C20.2038 10.9987 20.4004 10.9373 20.5664 10.8232C20.7324 10.7089 20.86 10.5472 20.9326 10.3593C21.0063 10.1688 21.0199 9.96042 20.9717 9.76192C20.9234 9.5635 20.8155 9.38458 20.6625 9.24926ZM12.0002 18.9998H9.99975V15.9997C9.99975 15.7344 10.1052 15.4801 10.2927 15.2925C10.4803 15.105 10.7347 14.9996 11 14.9996C11.2652 14.9996 11.5197 15.105 11.7072 15.2925C11.8948 15.4801 12.0002 15.7344 12.0002 15.9997V18.9998ZM17.0015 18.9998H14.0007V15.9997C14.0007 15.204 13.6846 14.4408 13.1218 13.8783C12.5591 13.3156 11.7958 12.9995 11 12.9995C10.2042 12.9995 9.44092 13.3156 8.87813 13.8783C8.31538 14.4408 7.99923 15.204 7.99923 15.9997V18.9998H4.99846V10.9993H17.0015V18.9998ZM4.62837 8.99924L11 3.33888L17.3717 8.99924H4.62837Z" fill="#09C61C"/>
</svg>
