<svg width="22" height="22" viewBox="0 0 22 22" fill="none" xmlns="http://www.w3.org/2000/svg">
<path d="M19.3715 9.272C19.1186 8.9684 18.8021 8.72402 18.4444 8.55602C18.0867 8.38808 17.6965 8.30072 17.3013 8.3H13.197L13.701 7.01303C13.9107 6.44952 13.9805 5.84358 13.9045 5.24716C13.8285 4.65075 13.6089 4.08167 13.2646 3.58874C12.9204 3.09582 12.4617 2.69376 11.9278 2.41705C11.394 2.14034 10.801 1.99725 10.1997 2.00004C10.0266 2.0004 9.85724 2.05069 9.71192 2.14487C9.56666 2.23905 9.45164 2.37313 9.38066 2.53104L6.81542 8.3H4.70023C3.98409 8.3 3.29727 8.58446 2.79088 9.09086C2.28449 9.5972 2 10.284 2 11V17.3C2 18.0161 2.28449 18.7029 2.79088 19.2092C3.29727 19.7155 3.98409 20 4.70023 20H16.1583C16.7899 19.9998 17.4015 19.7781 17.8867 19.3736C18.3718 18.9691 18.6997 18.4073 18.8134 17.786L19.9566 11.486C20.0272 11.0967 20.0115 10.6965 19.9104 10.314C19.8093 9.93134 19.6254 9.57566 19.3715 9.272ZM6.50039 18.2H4.70023C4.46152 18.2 4.23258 18.1052 4.06378 17.9364C3.89499 17.7676 3.80016 17.5387 3.80016 17.3V11C3.80016 10.7613 3.89499 10.5324 4.06378 10.3636C4.23258 10.1949 4.46152 10.1 4.70023 10.1H6.50039V18.2ZM18.2014 11.162L17.0583 17.462C17.02 17.6716 16.9084 17.8609 16.7436 17.9961C16.5788 18.1312 16.3714 18.2035 16.1583 18.2H8.30054V9.389L10.7488 3.88104C11.0008 3.9545 11.2348 4.0794 11.4361 4.24786C11.6374 4.41632 11.8016 4.62468 11.9183 4.85978C12.0351 5.09488 12.1017 5.35162 12.1142 5.6138C12.1267 5.87598 12.0847 6.1379 11.9908 6.38303L11.5138 7.67003C11.4122 7.94206 11.3779 8.23466 11.4138 8.52278C11.4498 8.81096 11.5549 9.08618 11.7202 9.32486C11.8856 9.5636 12.1063 9.75878 12.3634 9.89378C12.6205 10.0288 12.9066 10.0995 13.197 10.1H17.3013C17.4336 10.0998 17.5642 10.1287 17.684 10.1847C17.8038 10.2407 17.9098 10.3224 17.9944 10.424C18.0811 10.5242 18.1446 10.6423 18.1804 10.7699C18.2162 10.8975 18.2233 11.0314 18.2014 11.162Z" fill="#09C61C"/>
</svg>
