<svg width="22" height="22" viewBox="0 0 22 22" fill="none" xmlns="http://www.w3.org/2000/svg">
<path d="M20.6675 1.22906C20.5639 1.1402 20.4424 1.07468 20.3113 1.03698C20.1802 0.99928 20.0424 0.990271 19.9075 1.01057L7.5575 2.91047C7.3326 2.94459 7.12741 3.05827 6.97923 3.23084C6.83104 3.40343 6.74971 3.62345 6.75 3.85091V13.6828C6.30613 13.4661 5.81899 13.3524 5.325 13.3504C4.66738 13.3504 4.02453 13.5454 3.47773 13.9107C2.93094 14.2761 2.50476 14.7953 2.2531 15.4028C2.00144 16.0104 1.93559 16.6789 2.06389 17.3238C2.19219 17.9688 2.50886 18.5612 2.97387 19.0262C3.43888 19.4912 4.03134 19.8078 4.67633 19.9361C5.32131 20.0644 5.98986 19.9986 6.59742 19.7469C7.20499 19.4953 7.72428 19.0691 8.08964 18.5223C8.45499 17.9756 8.65 17.3328 8.65 16.6752V9.4176L19.1 7.81219V11.7829C18.6562 11.5662 18.169 11.4525 17.675 11.4505C17.0174 11.4505 16.3745 11.6455 15.8277 12.0108C15.2809 12.3762 14.8547 12.8954 14.6031 13.5029C14.3514 14.1105 14.2856 14.779 14.4139 15.4239C14.5422 16.0689 14.8588 16.6613 15.3238 17.1263C15.7889 17.5913 16.3814 17.9079 17.0263 18.0362C17.6713 18.1645 18.3399 18.0987 18.9474 17.847C19.555 17.5954 20.0743 17.1692 20.4396 16.6224C20.805 16.0757 21 15.4329 21 14.7753V1.95102C21 1.81381 20.9703 1.67822 20.9129 1.55359C20.8555 1.42896 20.7718 1.31825 20.6675 1.22906ZM5.325 18.1001C5.04316 18.1001 4.76765 18.0166 4.53332 17.8599C4.29897 17.7034 4.11632 17.4808 4.00847 17.2205C3.90062 16.9601 3.8724 16.6736 3.92738 16.3972C3.98237 16.1208 4.11808 15.8669 4.31737 15.6677C4.51666 15.4684 4.77057 15.3326 5.047 15.2777C5.32342 15.2227 5.60994 15.2509 5.87033 15.3587C6.13071 15.4665 6.35326 15.6492 6.50985 15.8836C6.66643 16.1178 6.75 16.3934 6.75 16.6752C6.75 17.0531 6.59987 17.4156 6.33263 17.6828C6.06539 17.95 5.70294 18.1001 5.325 18.1001ZM17.675 16.2002C17.3931 16.2002 17.1176 16.1167 16.8833 15.96C16.649 15.8035 16.4663 15.5809 16.3585 15.3206C16.2507 15.0603 16.2224 14.7738 16.2774 14.4973C16.3324 14.2209 16.4681 13.967 16.6673 13.7678C16.8666 13.5685 17.1206 13.4327 17.397 13.3778C17.6734 13.3228 17.9599 13.351 18.2203 13.4588C18.4807 13.5667 18.7033 13.7493 18.8598 13.9837C19.0164 14.2179 19.1 14.4935 19.1 14.7753C19.1 15.1533 18.9499 15.5157 18.6827 15.7829C18.4154 16.0501 18.0529 16.2002 17.675 16.2002ZM19.1 5.8838L8.65 7.48921V4.63937L19.1 3.06246V5.8838Z" fill="#09C61C"/>
</svg>
