<svg width="22" height="22" viewBox="0 0 22 22" fill="none" xmlns="http://www.w3.org/2000/svg">
<path d="M14.1011 2.00033C12.5023 2.18515 11.5945 3.93842 11.479 5.4613C11.2902 6.81514 11.881 8.54266 13.3027 8.85396C14.5347 8.96388 15.5149 7.80616 15.9175 6.70181C16.393 5.31951 16.4068 3.47357 15.2531 2.43799C14.9326 2.1602 14.5211 1.99144 14.1011 2.00033ZM7.57945 2.07282C6.24912 2.16908 5.56726 3.71546 5.65979 4.95676C5.6711 6.61648 6.58234 8.48319 8.24404 8.87718C9.48328 9.01123 10.3096 7.6966 10.3865 6.54711C10.5447 4.78795 9.76543 2.65691 8.0008 2.12578C7.86365 2.08789 7.72141 2.06909 7.57945 2.07282ZM18.2691 7.40295C16.4842 7.53381 15.3555 9.43643 15.2779 11.1557C15.184 12.2754 15.9072 13.6834 17.1249 13.6062C18.946 13.4132 20.0439 11.383 19.9987 9.61909C19.987 8.60358 19.3436 7.44528 18.2691 7.40295ZM2.01383 9.72386C1.84857 11.6289 3.18133 13.7821 5.11739 13.9021C6.29084 13.8237 6.84416 12.4605 6.70968 11.382C6.60251 9.79062 5.53875 8.16102 4.15665 7.94813C2.77455 7.73524 1.99191 8.71191 2.01383 9.72386ZM11.2039 11.349C9.38884 11.3532 7.7293 12.5403 6.84207 14.1465C6.09871 15.3468 5.491 16.7056 5.37541 18.1396C5.4007 19.2455 6.45565 20.166 7.51349 19.9457C9.02235 19.7498 10.3707 18.7017 11.9397 18.8981C13.2436 19.0022 14.319 20.0136 15.6355 19.9989C16.9138 20.0469 17.6513 18.5816 17.1638 17.4339C16.6392 15.7908 15.6221 14.3616 14.5305 13.0745C13.6597 12.1257 12.5192 11.307 11.2039 11.349Z" fill="#09C61C"/>
</svg>
