<svg width="22" height="22" viewBox="0 0 22 22" fill="none" xmlns="http://www.w3.org/2000/svg">
<path d="M13.36 13.23C12.6915 13.769 11.8587 14.0629 11 14.0629C10.1413 14.0629 9.30849 13.769 8.64 13.23C8.43579 13.0603 8.17251 12.9786 7.90808 13.003C7.64365 13.0274 7.39974 13.1558 7.23 13.36C7.06027 13.5642 6.9786 13.8275 7.00298 14.0919C7.02736 14.3564 7.15579 14.6003 7.36 14.77C8.38134 15.6226 9.66957 16.0896 11 16.0896C12.3304 16.0896 13.6187 15.6226 14.64 14.77C14.8442 14.6003 14.9726 14.3564 14.997 14.0919C15.0214 13.8275 14.9397 13.5642 14.77 13.36C14.686 13.2589 14.5828 13.1753 14.4665 13.1141C14.3501 13.0528 14.2229 13.0151 14.0919 13.003C13.8275 12.9786 13.5642 13.0603 13.36 13.23ZM8 10.71L8.29 10.41L8.58 10.71C8.67297 10.8037 8.78357 10.8781 8.90543 10.9289C9.02729 10.9796 9.15799 11.0058 9.29 11.0058C9.42202 11.0058 9.55272 10.9796 9.67458 10.9289C9.79644 10.8781 9.90704 10.8037 10 10.71C10.0937 10.617 10.1681 10.5064 10.2189 10.3846C10.2697 10.2627 10.2958 10.132 10.2958 9.99999C10.2958 9.86798 10.2697 9.73727 10.2189 9.61541C10.1681 9.49355 10.0937 9.38295 10 9.28999L9.7 8.99999L10 8.70999C10.1883 8.51638 10.292 8.2559 10.2882 7.98585C10.2845 7.7158 10.1736 7.45829 9.98 7.26999C9.7864 7.08169 9.52591 6.97801 9.25586 6.98176C8.98581 6.98551 8.72831 7.09638 8.54 7.28999L8.25 7.58999L8 7.28999C7.8117 7.09638 7.5542 6.98551 7.28415 6.98176C7.01409 6.97801 6.75361 7.08169 6.56 7.26999C6.3664 7.45829 6.25552 7.7158 6.25177 7.98585C6.24802 8.2559 6.3517 8.51638 6.54 8.70999L6.84 8.99999L6.54 9.28999C6.44628 9.38295 6.37188 9.49355 6.32111 9.61541C6.27034 9.73727 6.24421 9.86798 6.24421 9.99999C6.24421 10.132 6.27034 10.2627 6.32111 10.3846C6.37188 10.5064 6.44628 10.617 6.54 10.71C6.63297 10.8037 6.74357 10.8781 6.86543 10.9289C6.98729 10.9796 7.11799 11.0058 7.25 11.0058C7.38202 11.0058 7.51272 10.9796 7.63458 10.9289C7.75644 10.8781 7.86704 10.8037 7.96 10.71H8ZM11 1C9.02219 1 7.08879 1.58649 5.4443 2.6853C3.79981 3.78412 2.51809 5.34589 1.76121 7.17316C1.00433 9.00042 0.806299 11.0111 1.19215 12.9509C1.578 14.8907 2.53041 16.6725 3.92894 18.0711C5.32746 19.4696 7.10929 20.422 9.0491 20.8079C10.9889 21.1937 12.9996 20.9957 14.8268 20.2388C16.6541 19.4819 18.2159 18.2002 19.3147 16.5557C20.4135 14.9112 21 12.9778 21 11C21 9.68677 20.7413 8.38641 20.2388 7.17316C19.7363 5.9599 18.9997 4.85752 18.0711 3.92893C17.1425 3.00035 16.0401 2.26375 14.8268 1.7612C13.6136 1.25866 12.3132 1 11 1ZM11 19C9.41775 19 7.87104 18.5308 6.55544 17.6518C5.23985 16.7727 4.21447 15.5233 3.60897 14.0615C3.00347 12.5997 2.84504 10.9911 3.15372 9.43927C3.4624 7.88742 4.22433 6.46196 5.34315 5.34314C6.46197 4.22433 7.88743 3.4624 9.43928 3.15372C10.9911 2.84504 12.5997 3.00346 14.0615 3.60896C15.5233 4.21447 16.7727 5.23984 17.6518 6.55543C18.5308 7.87102 19 9.41774 19 11C19 13.1217 18.1572 15.1566 16.6569 16.6569C15.1566 18.1571 13.1217 19 11 19ZM16 7.28999C15.907 7.19626 15.7964 7.12187 15.6746 7.0711C15.5527 7.02033 15.422 6.99419 15.29 6.99419C15.158 6.99419 15.0273 7.02033 14.9054 7.0711C14.7836 7.12187 14.673 7.19626 14.58 7.28999L14.29 7.58999L14 7.28999C13.8117 7.10169 13.5563 6.9959 13.29 6.9959C13.0237 6.9959 12.7683 7.10169 12.58 7.28999C12.3917 7.47829 12.2859 7.73369 12.2859 7.99999C12.2859 8.26629 12.3917 8.52169 12.58 8.70999L12.88 8.99999L12.58 9.28999C12.4863 9.38295 12.4119 9.49355 12.3611 9.61541C12.3103 9.73727 12.2842 9.86798 12.2842 9.99999C12.2842 10.132 12.3103 10.2627 12.3611 10.3846C12.4119 10.5064 12.4863 10.617 12.58 10.71C12.673 10.8037 12.7836 10.8781 12.9054 10.9289C13.0273 10.9796 13.158 11.0058 13.29 11.0058C13.422 11.0058 13.5527 10.9796 13.6746 10.9289C13.7964 10.8781 13.907 10.8037 14 10.71L14.29 10.41L14.58 10.71C14.673 10.8037 14.7836 10.8781 14.9054 10.9289C15.0273 10.9796 15.158 11.0058 15.29 11.0058C15.422 11.0058 15.5527 10.9796 15.6746 10.9289C15.7964 10.8781 15.907 10.8037 16 10.71C16.0937 10.617 16.1681 10.5064 16.2189 10.3846C16.2697 10.2627 16.2958 10.132 16.2958 9.99999C16.2958 9.86798 16.2697 9.73727 16.2189 9.61541C16.1681 9.49355 16.0937 9.38295 16 9.28999L15.7 8.99999L16 8.70999C16.0937 8.61703 16.1681 8.50643 16.2189 8.38457C16.2697 8.26271 16.2958 8.132 16.2958 7.99999C16.2958 7.86798 16.2697 7.73727 16.2189 7.61541C16.1681 7.49355 16.0937 7.38295 16 7.28999Z" fill="#09C61C"/>
</svg>
