<svg width="96" height="96" viewBox="0 0 96 96" fill="none" xmlns="http://www.w3.org/2000/svg">
<g clip-path="url(#clip0_401_8)">
<path d="M66 48C66 40.92 61.92 34.84 56 31.88V40.72L65.8 50.52C65.92 49.72 66 48.88 66 48ZM76 48C76 51.76 75.2 55.28 73.84 58.56L79.88 64.6C82.52 59.64 84 54 84 48C84 30.88 72.04 16.56 56 12.92V21.16C67.56 24.6 76 35.32 76 48ZM17.08 12L12 17.08L30.92 36H12V60H28L48 80V53.08L65 70.08C62.32 72.16 59.32 73.8 56 74.8V83.04C61.52 81.8 66.52 79.24 70.76 75.8L78.92 84L84 78.92L48 42.92L17.08 12ZM48 16L39.64 24.36L48 32.72V16Z" fill="black"/>
</g>
<defs>
<clipPath id="clip0_401_8">
<rect width="96" height="96" fill="white"/>
</clipPath>
</defs>
</svg>
